<?xml version="1.0" encoding="UTF-8"?>
<!-- Generated by Pixelmator Pro 3.3.6 -->
<svg width="604" height="409" viewBox="0 0 604 409" xmlns="http://www.w3.org/2000/svg">
    <g id="442d9b15-3ec4-4199-8a85-151ea2d74acf"/>
    <g id="a00f1003-3a13-4894-a153-839701b78d95">
        <path id="Path" fill="#ffffff" stroke="none" d="M -84 -358 L 996 -358 L 996 722 L -84 722 Z"/>
    </g>
    <g id="Group">
        <path id="path1" fill="#3f3d56" stroke="none" d="M 473.665039 76.083618 L 19.372002 76.083618 C 18.389153 76.062805 17.603264 75.260071 17.603264 74.276978 C 17.603264 73.293945 18.389153 72.491211 19.372002 72.470398 L 473.665039 72.470398 C 474.647888 72.491211 475.433777 73.293945 475.433777 74.276978 C 475.433777 75.260071 474.647888 76.062805 473.665039 76.083618 Z"/>
    </g>
    <g id="g1">
        <path id="path2" fill="#3f3d56" stroke="none" d="M 60.877518 52.429993 C 60.877518 58.407654 56.137314 63.253479 50.289993 63.253479 C 44.442673 63.253479 39.702492 58.407654 39.702492 52.429993 C 39.702492 46.452393 44.442673 41.606567 50.289993 41.606567 C 56.137314 41.606567 60.877518 46.452393 60.877518 52.429993 Z"/>
    </g>
    <g id="g2">
        <path id="path3" fill="#3f3d56" stroke="none" d="M 97.457504 52.429993 C 97.457504 58.407654 92.717316 63.253479 86.869995 63.253479 C 81.022675 63.253479 76.282486 58.407654 76.282486 52.429993 C 76.282486 46.452393 81.022675 41.606567 86.869995 41.606567 C 92.717316 41.606567 97.457504 46.452393 97.457504 52.429993 Z"/>
    </g>
    <g id="g3">
        <path id="path4" fill="#3f3d56" stroke="none" d="M 134.027512 52.429993 C 134.027512 58.407654 129.287323 63.253479 123.440002 63.253479 C 117.592682 63.253479 112.852493 58.407654 112.852493 52.429993 C 112.852493 46.452393 117.592682 41.606567 123.440002 41.606567 C 129.287323 41.606567 134.027512 46.452393 134.027512 52.429993 Z"/>
    </g>
    <g id="g4">
        <path id="path5" fill="#3f3d56" stroke="none" d="M 451.643738 44.282104 L 425.66272 44.282104 C 424.591553 44.303406 423.734314 45.177917 423.734314 46.249329 C 423.734314 47.32074 424.591553 48.19519 425.66272 48.216553 L 451.643738 48.216553 C 452.714966 48.19519 453.572205 47.32074 453.572205 46.249329 C 453.572205 45.177917 452.714966 44.303406 451.643738 44.282104 Z"/>
    </g>
    <g id="g5">
        <path id="path6" fill="#3f3d56" stroke="none" d="M 451.643738 51.666443 L 425.66272 51.666443 C 424.591431 51.687683 423.73407 52.562195 423.73407 53.633667 C 423.73407 54.7052 424.591431 55.579712 425.66272 55.600891 L 451.643738 55.600891 C 452.715027 55.579712 453.572449 54.7052 453.572449 53.633667 C 453.572449 52.562195 452.715027 51.687683 451.643738 51.666443 Z"/>
    </g>
    <g id="g6">
        <path id="path7" fill="#3f3d56" stroke="none" d="M 451.643738 59.041138 L 425.66272 59.041138 C 424.591431 59.062317 423.73407 59.936829 423.73407 61.008362 C 423.73407 62.079895 424.591431 62.954407 425.66272 62.975586 L 451.643738 62.975586 C 452.715027 62.954407 453.572449 62.079895 453.572449 61.008362 C 453.572449 59.936829 452.715027 59.062317 451.643738 59.041138 Z"/>
    </g>
    <g id="g7">
        <path id="path8" fill="#cacaca" stroke="none" d="M 65.879364 120.390015 C 65.879364 127.61908 60.019058 133.47937 52.789993 133.47937 C 45.560944 133.47937 39.70063 127.61908 39.70063 120.390015 C 39.70063 113.16095 45.560944 107.300659 52.789993 107.300659 C 60.019058 107.300659 65.879364 113.16095 65.879364 120.390015 Z"/>
    </g>
    <g id="g8">
        <path id="path9" fill="#cacaca" stroke="none" d="M 386.11084 149.378967 L 43.596741 149.378967 C 41.444061 149.378967 39.699005 147.633911 39.699005 145.481262 C 39.699005 143.328552 41.444061 141.583496 43.596741 141.583496 L 386.11084 141.583496 C 388.263489 141.583496 390.008606 143.328552 390.008606 145.481262 C 390.008606 147.633911 388.263489 149.378967 386.11084 149.378967 Z"/>
    </g>
    <g id="g9">
        <path id="path10" fill="#cacaca" stroke="none" d="M 296.280396 164.781006 L 43.596741 164.781006 C 41.44397 164.781006 39.698792 163.035828 39.698792 160.883057 C 39.698792 158.730286 41.44397 156.985107 43.596741 156.985107 L 296.280396 156.985107 C 298.433167 156.985107 300.178345 158.730286 300.178345 160.883057 C 300.178345 163.035828 298.433167 164.781006 296.280396 164.781006 Z"/>
    </g>
    <g id="g10">
        <path id="path11" fill="#cacaca" stroke="none" d="M 65.879364 324.700012 C 65.879364 331.929047 60.019058 337.789368 52.789993 337.789368 C 45.560944 337.789368 39.70063 331.929047 39.70063 324.700012 C 39.70063 317.470947 45.560944 311.610626 52.789993 311.610626 C 60.019058 311.610626 65.879364 317.470947 65.879364 324.700012 Z"/>
    </g>
    <g id="g11">
        <path id="path12" fill="#cacaca" stroke="none" d="M 386.12085 353.693604 L 43.606743 353.693604 C 42.21273 353.695862 40.923637 352.95343 40.225975 351.746521 C 39.528343 350.539673 39.528343 349.052063 40.225975 347.845215 C 40.923637 346.638306 42.21273 345.895905 43.606743 345.898132 L 386.12085 345.898132 C 388.37146 346.023499 390.155334 347.843933 390.235046 350.096558 C 390.170349 351.120605 389.699463 352.076477 388.927002 352.751831 C 388.154541 353.427246 387.144348 353.766235 386.12085 353.693604 Z"/>
    </g>
    <g id="g12">
        <path id="path13" fill="#cacaca" stroke="none" d="M 296.280396 369.085602 L 43.596741 369.085602 C 41.44397 369.085602 39.698792 367.340424 39.698792 365.187653 C 39.698792 363.034882 41.44397 361.289703 43.596741 361.289703 L 296.280396 361.289703 C 298.433167 361.289703 300.178345 363.034882 300.178345 365.187653 C 300.178345 367.340424 298.433167 369.085602 296.280396 369.085602 Z"/>
    </g>
    <g id="g13">
        <path id="path14" fill="#cacaca" stroke="none" d="M 65.879364 214.839996 C 65.879364 222.069061 60.019058 227.929382 52.789993 227.929382 C 45.560944 227.929382 39.70063 222.069061 39.70063 214.839996 C 39.70063 207.610962 45.560944 201.75061 52.789993 201.75061 C 60.019058 201.75061 65.879364 207.610962 65.879364 214.839996 Z"/>
    </g>
    <g id="g14">
        <path id="path15" fill="#cacbcc" stroke="none" d="M 386.11084 243.830353 L 43.596741 243.830353 C 41.444061 243.830353 39.699005 242.085266 39.699005 239.932617 C 39.699005 237.779938 41.444061 236.034851 43.596741 236.034851 L 386.11084 236.034851 C 388.263489 236.034851 390.008606 237.779938 390.008606 239.932617 C 390.008606 242.085266 388.263489 243.830353 386.11084 243.830353 Z"/>
    </g>
    <g id="g15">
        <path id="path16" fill="#cacaca" stroke="none" d="M 338.413269 259.2323 L 43.596741 259.2323 C 41.44397 259.2323 39.698792 257.487152 39.698792 255.334381 C 39.698792 253.18161 41.44397 251.436432 43.596741 251.436432 L 338.413269 251.436432 C 340.56604 251.436432 342.311218 253.18161 342.311218 255.334381 C 342.311218 257.487152 340.56604 259.2323 338.413269 259.2323 Z"/>
    </g>
    <g id="g16">
        <path id="path17" fill="#c9c9ca" stroke="none" d="M 318.403198 274.634247 L 43.596741 274.634247 C 41.44397 274.634247 39.698792 272.889099 39.698792 270.736328 C 39.698792 268.583557 41.44397 266.838379 43.596741 266.838379 L 318.403198 266.838379 C 320.555969 266.838379 322.301147 268.583557 322.301147 270.736328 C 322.301147 272.889099 320.555969 274.634247 318.403198 274.634247 Z"/>
    </g>
    <g id="g17">
        <path id="path18" fill="#6c63ff" stroke="none" d="M 560.233582 246.730011 C 560.233582 300.264954 516.834961 343.663605 463.299988 343.663605 C 409.765045 343.663605 366.366394 300.264954 366.366394 246.730011 C 366.366394 193.195068 409.765045 149.796387 463.299988 149.796387 C 516.834961 149.796387 560.233582 193.195068 560.233582 246.730011 Z"/>
    </g>
    <g id="g18">
        <path id="path19" fill="#3f3d56" stroke="none" d="M 477.017639 266.709991 C 477.017639 274.357849 470.817871 280.557648 463.169983 280.557648 C 455.522156 280.557648 449.322327 274.357849 449.322327 266.709991 C 449.322327 259.062134 455.522156 252.862335 463.169983 252.862335 C 470.817871 252.862335 477.017639 259.062134 477.017639 266.709991 Z"/>
    </g>
    <g id="g19">
        <path id="path20" fill="#6c63ff" stroke="none" d="M 469.561218 266.709991 C 469.561218 270.239777 466.699768 273.101227 463.169983 273.101227 C 459.640198 273.101227 456.778748 270.239777 456.778748 266.709991 C 456.778748 263.180206 459.640198 260.318756 463.169983 260.318756 C 466.699768 260.318756 469.561218 263.180206 469.561218 266.709991 Z"/>
    </g>
    <g id="g20">
        <path id="path21" fill="#ffffff" stroke="none" d="M 488.871582 297.538025 L 437.7276 297.538025 C 427.183258 297.526428 418.638092 288.98175 418.626007 278.437439 L 418.626007 254.98822 C 418.638031 244.443726 427.183014 235.898712 437.7276 235.886658 L 488.871582 235.886658 C 499.415894 235.898926 507.960693 244.443909 507.972656 254.98822 L 507.972656 278.437439 C 507.960571 288.981567 499.41571 297.526245 488.871582 297.538025 Z M 437.7276 237.886627 C 428.287109 237.89743 420.636749 245.547729 420.626007 254.98822 L 420.626007 278.437439 C 420.63681 287.877686 428.287292 295.527649 437.727539 295.538025 L 488.871521 295.538025 C 498.311707 295.527649 505.961975 287.877625 505.972595 278.437439 L 505.972595 254.98822 C 505.962036 245.547852 498.31189 237.897491 488.871521 237.886658 Z"/>
    </g>
    <g id="g21">
        <path id="path22" fill="#3f3d56" stroke="none" d="M 464.096619 194.181885 C 454.615784 194.181885 446.282043 198.473999 441.563538 204.916565 C 446.607849 201.245483 452.697815 199.291382 458.936401 199.342163 C 473.617981 199.342163 485.562378 209.626526 485.562378 222.267609 L 485.562378 232.77536 L 490.722656 232.77536 L 490.722656 217.107361 C 490.722595 204.466248 478.778198 194.181885 464.096619 194.181885 Z"/>
    </g>
    <g id="g22">
        <path id="path23" fill="#ffffff" stroke="none" d="M 494.258301 238.153259 L 432.340332 238.153259 L 432.340332 219.935486 C 432.340332 205.237244 446.228455 193.279236 463.299316 193.279236 C 480.370117 193.279236 494.258301 205.237244 494.258301 219.935486 Z M 434.340332 236.153259 L 492.258301 236.153259 L 492.258301 219.935486 C 492.258301 206.339783 479.267578 195.279236 463.299316 195.279236 C 447.331055 195.279236 434.340332 206.339783 434.340332 219.935486 Z"/>
    </g>
    <g id="g23">
        <path id="path24" fill="#ffffff" stroke="none" d="M 479.166687 231.188171 L 447.451843 231.188171 C 444.481018 231.184753 442.073669 228.777161 442.070496 225.806335 L 442.070496 218.556335 C 442.070496 208.447937 451.598328 200.224365 463.309265 200.224365 C 475.020203 200.224365 484.548035 208.447998 484.548035 218.556335 L 484.548035 225.806335 C 484.544861 228.777161 482.137512 231.184753 479.166687 231.188171 Z M 463.309265 202.224365 C 452.700867 202.224365 444.070496 209.550476 444.070496 218.556305 L 444.070496 225.806305 C 444.072388 227.673096 445.585083 229.186005 447.451843 229.188141 L 479.166687 229.188141 C 481.033447 229.186005 482.546143 227.673096 482.548035 225.806305 L 482.548035 218.556305 C 482.548035 209.550476 473.917664 202.224365 463.309265 202.224365 Z"/>
    </g>
</svg>
