<?xml version="1.0" encoding="UTF-8"?>
<!-- Generated by Pixelmator Pro 3.3.6 -->
<svg width="424" height="239" viewBox="0 0 424 239" xmlns="http://www.w3.org/2000/svg">
    <path id="Path" fill="none" stroke="none" d="M -328 -317.440002 L 752 -317.440002 L 752 382.559998 L -328 382.559998 Z"/>
    <g id="770b2409-f340-4b46-967c-0ef147d15749">
        <path id="path1" fill="#ffffff" stroke="none" visibility="hidden" d="M -328 -317.440002 L 752 -317.440002 L 752 382.559998 L -328 382.559998 Z"/>
    </g>
    <g id="Group">
        <path id="path2" fill="#3f3d56" stroke="none" d="M 125.083832 207.082825 C 122.275116 207.073456 119.478638 206.7117 116.759979 206.006042 L 116.224182 205.857788 L 115.727081 205.608765 C 97.756256 196.598541 82.595276 184.697296 70.6651 170.235443 C 60.789398 158.193848 53.089905 144.521881 47.91275 129.83429 C 41.72171 112.249634 38.743195 93.694977 39.119415 75.056091 C 39.127014 74.664856 39.133453 74.362762 39.133453 74.154633 C 39.133453 65.094147 44.16272 57.144257 51.946045 53.901154 C 57.903046 51.419067 111.989655 29.203552 115.897552 27.598419 C 123.257172 23.910767 131.108551 26.988708 132.365021 27.526917 C 135.183258 28.679169 185.183044 49.129669 195.987976 54.274689 C 207.123535 59.577332 210.094604 69.103302 210.094604 73.895996 C 210.094604 95.593994 206.336731 115.872498 198.925293 134.168243 C 192.93988 148.977325 184.456604 162.648987 173.845093 174.587585 C 153.371338 197.627777 132.892151 205.795654 132.694519 205.867645 C 130.247009 206.709808 127.671936 207.120972 125.083832 207.082825 Z M 120.267792 195.15332 C 122.043304 195.551392 126.131042 196.148468 128.795349 195.176544 C 132.180023 193.942169 149.32074 185.053711 165.338257 167.028442 C 187.468933 142.123718 198.698059 110.816406 198.714478 73.976105 C 198.674927 73.229736 198.144897 67.906403 191.095276 64.549622 C 180.499908 59.50412 128.529388 38.253448 128.005646 38.039246 L 127.862091 37.978363 C 126.772949 37.521973 123.306793 36.560669 120.917542 37.812683 L 120.439117 38.035736 C 119.859863 38.273621 62.446259 61.854614 56.32309 64.405884 C 52.039734 66.190613 50.513611 70.612 50.513611 74.154663 C 50.513611 74.413574 50.506927 74.790161 50.497437 75.276855 C 50.008087 100.484406 55.841248 162.51236 120.267792 195.15332 Z"/>
    </g>
    <g id="g1">
        <path id="path3" fill="#6c63ff" stroke="none" d="M 118.257355 32.762238 C 118.257355 32.762238 60.32193 56.557159 54.114594 59.143555 C 47.907227 61.72995 44.803558 67.937317 44.803558 74.144684 C 44.803558 80.35202 40.14801 161.349792 118.257355 200.512085 C 118.257355 200.512085 125.346527 202.473633 130.724976 200.512085 C 136.103485 198.550568 204.384521 165.444641 204.384521 73.886017 C 204.384521 73.886017 204.384521 64.574982 193.521606 59.402161 C 182.658722 54.22937 130.138489 32.762238 130.138489 32.762238 C 130.138489 32.762238 123.688812 29.917206 118.257355 32.762238 Z"/>
    </g>
    <g id="g2">
        <path id="path4" fill="#000000" stroke="none" opacity="0.2" d="M 124.23819 51.330292 L 124.23819 178.26767 C 124.23819 178.26767 182.690857 150.130859 182.173615 76.15979 Z"/>
    </g>
    <g id="g3">
        <path id="path5" fill="#ffffff" stroke="none" d="M 124.578003 137.547485 L 104.149902 111.273712 L 116.027496 102.037201 L 125.704987 114.473389 L 158.383087 79.972504 L 169.310089 90.326202 L 124.578003 137.547485 Z"/>
    </g>
    <g id="g4">
        <path id="path6" fill="#3f3d56" stroke="none" d="M 380.557007 86.013519 L 236.137024 86.013519 C 233.735718 86.010773 231.789795 84.064819 231.786987 81.663513 L 231.786987 32.943512 C 231.789795 30.542236 233.735718 28.596313 236.137024 28.593536 L 380.557007 28.593536 C 382.958313 28.596283 384.904297 30.542236 384.907043 32.943512 L 384.907043 81.663513 C 384.904297 84.06485 382.958313 86.010803 380.557007 86.013519 Z"/>
    </g>
    <g id="g5">
        <path id="path7" fill="#ffffff" stroke="none" d="M 254.400024 41.625 L 292.679993 41.625 L 292.679993 45.975006 L 254.400024 45.975006 Z"/>
    </g>
    <g id="g6">
        <path id="path8" fill="#6c63ff" stroke="none" d="M 345.690002 44.23999 C 345.690002 45.681458 344.521484 46.850006 343.080017 46.850006 C 341.63855 46.850006 340.469971 45.681458 340.469971 44.23999 C 340.469971 42.798523 341.63855 41.630005 343.080017 41.630005 C 344.521484 41.630005 345.690002 42.798523 345.690002 44.23999 Z"/>
    </g>
    <g id="g7">
        <path id="path9" fill="#6c63ff" stroke="none" d="M 354.380005 44.23999 C 354.380005 45.681458 353.211487 46.850006 351.77002 46.850006 C 350.328552 46.850006 349.159973 45.681458 349.159973 44.23999 C 349.159973 42.798523 350.328552 41.630005 351.77002 41.630005 C 353.211487 41.630005 354.380005 42.798523 354.380005 44.23999 Z"/>
    </g>
    <g id="g8">
        <path id="path10" fill="#6c63ff" stroke="none" d="M 363.059998 44.23999 C 363.059998 45.681458 361.891479 46.850006 360.450012 46.850006 C 359.008545 46.850006 357.840027 45.681458 357.840027 44.23999 C 357.840027 42.798523 359.008545 41.630005 360.450012 41.630005 C 361.891479 41.630005 363.059998 42.798523 363.059998 44.23999 Z"/>
    </g>
    <g id="g9">
        <path id="path11" fill="#3f3d56" stroke="none" d="M 380.557007 147.733521 L 236.137024 147.733521 C 233.735718 147.730774 231.789795 145.784821 231.786987 143.383514 L 231.786987 94.663513 C 231.789795 92.262238 233.735718 90.316315 236.137024 90.313538 L 380.557007 90.313538 C 382.958313 90.316284 384.904297 92.262238 384.907043 94.663513 L 384.907043 143.383514 C 384.904297 145.784851 382.958313 147.730804 380.557007 147.733521 Z"/>
    </g>
    <g id="g10">
        <path id="path12" fill="#ffffff" stroke="none" d="M 254.400024 103.345001 L 292.679993 103.345001 L 292.679993 107.695007 L 254.400024 107.695007 Z"/>
    </g>
    <g id="g11">
        <path id="path13" fill="#6c63ff" stroke="none" d="M 345.690002 105.959991 C 345.690002 107.401459 344.521484 108.570007 343.080017 108.570007 C 341.63855 108.570007 340.469971 107.401459 340.469971 105.959991 C 340.469971 104.518524 341.63855 103.350006 343.080017 103.350006 C 344.521484 103.350006 345.690002 104.518524 345.690002 105.959991 Z"/>
    </g>
    <g id="g12">
        <path id="path14" fill="#6c63ff" stroke="none" d="M 354.380005 105.959991 C 354.380005 107.401459 353.211487 108.570007 351.77002 108.570007 C 350.328552 108.570007 349.159973 107.401459 349.159973 105.959991 C 349.159973 104.518524 350.328552 103.350006 351.77002 103.350006 C 353.211487 103.350006 354.380005 104.518524 354.380005 105.959991 Z"/>
    </g>
    <g id="g13">
        <path id="path15" fill="#6c63ff" stroke="none" d="M 363.059998 105.959991 C 363.059998 107.401459 361.891479 108.570007 360.450012 108.570007 C 359.008545 108.570007 357.840027 107.401459 357.840027 105.959991 C 357.840027 104.518524 359.008545 103.350006 360.450012 103.350006 C 361.891479 103.350006 363.059998 104.518524 363.059998 105.959991 Z"/>
    </g>
    <g id="g14">
        <path id="path16" fill="#3f3d56" stroke="none" d="M 380.557007 209.463531 L 236.137024 209.463531 C 233.735718 209.460754 231.789795 207.514801 231.786987 205.113525 L 231.786987 156.393524 C 231.789795 153.992249 233.735718 152.046326 236.137024 152.043518 L 380.557007 152.043518 C 382.958313 152.046295 384.904297 153.992249 384.907043 156.393524 L 384.907043 205.113525 C 384.904297 207.514832 382.958313 209.460785 380.557007 209.463531 Z"/>
    </g>
    <g id="g15">
        <path id="path17" fill="#ffffff" stroke="none" d="M 254.400024 165.075012 L 292.679993 165.075012 L 292.679993 169.424988 L 254.400024 169.424988 Z"/>
    </g>
    <g id="g16">
        <path id="path18" fill="#6c63ff" stroke="none" d="M 345.690002 167.690002 C 345.690002 169.13147 344.521484 170.299988 343.080017 170.299988 C 341.63855 170.299988 340.469971 169.13147 340.469971 167.690002 C 340.469971 166.248535 341.63855 165.079987 343.080017 165.079987 C 344.521484 165.079987 345.690002 166.248535 345.690002 167.690002 Z"/>
    </g>
    <g id="g17">
        <path id="path19" fill="#6c63ff" stroke="none" d="M 354.380005 167.690002 C 354.380005 169.13147 353.211487 170.299988 351.77002 170.299988 C 350.328552 170.299988 349.159973 169.13147 349.159973 167.690002 C 349.159973 166.248535 350.328552 165.079987 351.77002 165.079987 C 353.211487 165.079987 354.380005 166.248535 354.380005 167.690002 Z"/>
    </g>
    <g id="g18">
        <path id="path20" fill="#6c63ff" stroke="none" d="M 363.059998 167.690002 C 363.059998 169.13147 361.891479 170.299988 360.450012 170.299988 C 359.008545 170.299988 357.840027 169.13147 357.840027 167.690002 C 357.840027 166.248535 359.008545 165.079987 360.450012 165.079987 C 361.891479 165.079987 363.059998 166.248535 363.059998 167.690002 Z"/>
    </g>
    <g id="760375be-fceb-4116-ab00-44ec72bddd6b">
        <path id="path21" fill="#656565" stroke="none" opacity="0.59" d="M 423.565002 239.484634 L 0.434998 239.484634 L 0.434998 -0.057678 L 423.565002 -0.057678 L 423.565002 239.484634 Z M 10.915009 225.564636 L 413.085022 225.564636 L 413.085022 13.862305 L 10.915009 13.862305 L 10.915009 225.564636 Z"/>
    </g>
</svg>
